<svg xmlns="http://www.w3.org/2000/svg" viewBox="0 0 304.1 150.3" width="304" height="150">
  <!-- Box with gap at bottom for PLAY INSPECTION -->
  <path
    d="M 25.0,25.0
       L 279.1,25.0
       L 279.1,115.8
       L 250.1,115.8
       M 54.0,115.8
       L 25.0,115.8
       L 25.0,25.0"
    fill="none"
    stroke="#1a365d"
    stroke-width="2.5"
    stroke-linecap="square"
    stroke-linejoin="miter"
  />

  <!-- Play Safe -->
  <g transform="translate(60.00,43.00)" fill="#1a365d">
  <g id="play-safe" transform="translate(0,43.89)">
    <path transform="translate(0.00,0) scale(0.020508,-0.020508)" d="M703 479Q677 479 659 492Q640 505 614.0 529.0Q588 553 556 588Q544 602 544 613Q544 624 556 638Q618 708 669 741Q681 749 703 749Q771 749 820.5 800.0Q870 851 868 965Q867 1088 807.5 1137.0Q748 1186 645 1186H597Q531 1186 507.0 1158.0Q483 1130 483 1062V53Q483 23 470.5 11.5Q458 0 428 0H215Q185 0 172.5 11.5Q160 23 160 53V1166Q160 1266 178.5 1324.5Q197 1383 250.5 1408.5Q304 1434 407 1434H645Q932 1434 1070.0 1321.5Q1208 1209 1208 977Q1208 803 1135.5 693.0Q1063 583 947.5 531.0Q832 479 703 479Z"/>
    <path transform="translate(26.00,0) scale(0.020508,-0.020508)" d="M266 -21Q245 -30 236 -30Q227 -30 217 -23Q194 -7 164.5 55.5Q135 118 135 248V1406Q135 1430 145 1443Q187 1498 268 1562Q282 1572 293 1572Q306 1572 318 1562Q361 1529 390.5 1500.0Q420 1471 441 1443Q451 1430 451 1406V309Q451 243 462.0 196.5Q473 150 488 122Q505 89 475 75Z"/>
    <path transform="translate(38.10,0) scale(0.020508,-0.020508)" d="M400 -25Q253 -25 166.5 57.5Q80 140 80 285Q80 360 107.5 424.5Q135 489 203.5 538.5Q272 588 395.5 618.0Q519 648 711 653Q711 744 665.5 784.0Q620 824 529 824Q447 824 395.0 796.0Q343 768 330 758Q316 746 296 749Q269 753 238.5 763.0Q208 773 173 786Q168 788 162.0 792.5Q156 797 155 806Q155 811 156.0 818.5Q157 826 161 846Q165 866 173.0 895.5Q181 925 188 941Q197 958 218 973Q235 987 321.0 1018.0Q407 1049 570 1049Q1019 1049 1019 612V46Q1019 27 1008.5 13.5Q998 0 973 0H823Q807 0 794.5 4.5Q782 9 771 22L709 102H702Q656 35 578.5 5.0Q501 -25 400 -25ZM510 207Q602 207 649.0 254.0Q696 301 709 351V462Q570 462 500.5 440.5Q431 419 408.0 384.5Q385 350 385 310Q385 252 421.0 229.5Q457 207 510 207Z"/>
    <path transform="translate(61.77,0) scale(0.020508,-0.020508)" d="M167 -481Q130 -481 111.0 -473.5Q92 -466 79 -455Q53 -430 23 -385Q16 -374 8.0 -359.5Q0 -345 0 -335Q0 -324 5.0 -315.0Q10 -306 17 -298Q33 -277 56.0 -254.5Q79 -232 95 -219Q106 -210 113.0 -207.5Q120 -205 125 -205Q130 -205 140.0 -207.0Q150 -209 170 -209Q239 -209 314.0 -164.0Q389 -119 462 5Q386 75 312.5 180.5Q239 286 180.0 409.5Q121 533 85.5 656.0Q50 779 50 883Q50 905 61 918Q107 975 192 1037Q207 1047 219 1047Q232 1047 246 1037Q292 1004 323.5 975.0Q355 946 377 918Q388 905 388 881V885Q388 806 407.0 718.0Q426 630 459.0 546.5Q492 463 533.0 395.5Q574 328 618 288H623Q643 326 667.5 397.5Q692 469 714.0 556.5Q736 644 750.0 730.5Q764 817 764 884V881Q764 905 774 918Q797 946 828.0 975.0Q859 1004 903 1037Q917 1047 929 1047Q943 1047 955 1037Q1000 1004 1031.0 975.0Q1062 946 1084 918Q1094 905 1094 882Q1093 791 1059.0 644.5Q1025 498 960.0 327.0Q895 156 802 -8Q663 -255 502.0 -368.0Q341 -481 167 -481ZM1094 884V881V882Q1094 883 1094 884ZM50 884V883V881Z"/>
    <path transform="translate(96.78,0) scale(0.020508,-0.020508)" d="M548 -24Q421 -24 337.5 -1.0Q254 22 203.5 56.5Q153 91 126 125Q117 138 110.0 150.0Q103 162 100 177Q96 197 92.0 229.5Q88 262 91 305Q92 323 98 330Q105 338 121 342Q150 349 196.5 354.5Q243 360 263 360Q284 360 297.0 352.0Q310 344 328 325Q348 304 397.0 271.5Q446 239 548 239Q646 239 696.0 280.0Q746 321 746 394Q746 433 722.5 467.5Q699 502 637.0 536.5Q575 571 460 609Q270 673 186.0 768.0Q102 863 102 1032Q102 1172 170.0 1266.0Q238 1360 358.0 1408.0Q478 1456 635 1456Q756 1456 835.5 1427.5Q915 1399 959.0 1363.5Q1003 1328 1016 1306Q1024 1293 1026.5 1286.5Q1029 1280 1030 1269Q1033 1238 1032.0 1200.0Q1031 1162 1025 1114Q1022 1098 1014 1092Q1007 1087 992 1087Q895 1085 842 1097Q821 1102 814.0 1107.0Q807 1112 796 1123Q780 1142 745.5 1167.5Q711 1193 635 1193Q530 1193 486.0 1145.5Q442 1098 442 1039Q442 969 507.0 929.5Q572 890 712 840Q829 799 913.0 751.0Q997 703 1041.5 628.0Q1086 553 1086 430Q1086 277 1015.5 176.0Q945 75 823.5 25.5Q702 -24 548 -24Z"/>
    <path transform="translate(120.89,0) scale(0.020508,-0.020508)" d="M400 -25Q253 -25 166.5 57.5Q80 140 80 285Q80 360 107.5 424.5Q135 489 203.5 538.5Q272 588 395.5 618.0Q519 648 711 653Q711 744 665.5 784.0Q620 824 529 824Q447 824 395.0 796.0Q343 768 330 758Q316 746 296 749Q269 753 238.5 763.0Q208 773 173 786Q168 788 162.0 792.5Q156 797 155 806Q155 811 156.0 818.5Q157 826 161 846Q165 866 173.0 895.5Q181 925 188 941Q197 958 218 973Q235 987 321.0 1018.0Q407 1049 570 1049Q1019 1049 1019 612V46Q1019 27 1008.5 13.5Q998 0 973 0H823Q807 0 794.5 4.5Q782 9 771 22L709 102H702Q656 35 578.5 5.0Q501 -25 400 -25ZM510 207Q602 207 649.0 254.0Q696 301 709 351V462Q570 462 500.5 440.5Q431 419 408.0 384.5Q385 350 385 310Q385 252 421.0 229.5Q457 207 510 207Z"/>
    <path transform="translate(144.56,0) scale(0.020508,-0.020508)" d="M532 53Q532 23 519.5 11.5Q507 0 477 0H271Q241 0 228.5 11.5Q216 23 216 53V791H98Q68 791 56.5 803.5Q45 816 45 846V969Q45 999 56.5 1011.5Q68 1024 98 1024H216V1151Q216 1272 264.5 1359.0Q313 1446 395.5 1493.0Q478 1540 579 1540Q626 1540 650.5 1536.0Q675 1532 687 1524Q726 1502 795 1434Q806 1422 806 1410Q806 1397 789 1380Q759 1349 732.0 1327.5Q705 1306 688 1295Q673 1286 661.5 1284.5Q650 1283 630 1283Q532 1283 532 1133V1024H713Q743 1024 754.5 1011.5Q766 999 766 969V846Q766 816 754.5 803.5Q743 791 713 791H532Z"/>
    <path transform="translate(160.60,0) scale(0.020508,-0.020508)" d="M637 -25Q468 -25 343.0 29.5Q218 84 149.0 199.0Q80 314 80 496Q80 769 220.0 909.0Q360 1049 592 1049Q743 1049 847.5 995.0Q952 941 1006.5 846.0Q1061 751 1061 629Q1061 510 1000.0 463.0Q939 416 822 416H393Q401 313 468.5 259.0Q536 205 652 205Q744 205 799.5 232.5Q855 260 877 276Q896 290 920 289Q939 289 974.5 281.5Q1010 274 1045 254Q1070 241 1070 218Q1070 205 1065 181Q1062 167 1055.0 140.5Q1048 114 1037 91Q1031 80 1018 70Q998 56 953.5 33.0Q909 10 832.0 -7.5Q755 -25 637 -25ZM391 621H717Q768 621 768 668Q768 739 723.5 787.5Q679 836 590 836Q493 836 447.5 774.0Q402 712 391 621Z"/>
  </g>
  </g>

  <!-- PLAY INSPECTION (scaled to match Play Safe width) -->
  <g transform="translate(152.05,115.80) scale(1.0372) translate(-88.75,-9.13)" fill="#1a365d">
  <g id="play-inspection" transform="translate(0,14.63)">
    <path transform="translate(0.00,0) scale(0.006836,-0.006836)" d="M703 479Q677 479 659 492Q640 505 614.0 529.0Q588 553 556 588Q544 602 544 613Q544 624 556 638Q618 708 669 741Q681 749 703 749Q771 749 820.5 800.0Q870 851 868 965Q867 1088 807.5 1137.0Q748 1186 645 1186H597Q531 1186 507.0 1158.0Q483 1130 483 1062V53Q483 23 470.5 11.5Q458 0 428 0H215Q185 0 172.5 11.5Q160 23 160 53V1166Q160 1266 178.5 1324.5Q197 1383 250.5 1408.5Q304 1434 407 1434H645Q932 1434 1070.0 1321.5Q1208 1209 1208 977Q1208 803 1135.5 693.0Q1063 583 947.5 531.0Q832 479 703 479Z"/>
    <path transform="translate(12.67,0) scale(0.006836,-0.006836)" d="M407 0Q304 0 250.5 26.0Q197 52 178.5 111.0Q160 170 160 268V1274Q160 1303 170 1318Q215 1384 296 1457Q311 1469 322 1469Q334 1469 347 1457Q391 1419 421.0 1384.5Q451 1350 473 1318Q483 1302 483 1274V387Q483 320 507.0 291.0Q531 262 597 262L904 263Q928 263 940 255Q966 237 994.0 212.0Q1022 187 1053 152Q1063 139 1063 131Q1063 122 1053 111Q1022 76 994.0 51.0Q966 26 940 8Q926 0 904 0Z"/>
    <path transform="translate(23.80,0) scale(0.006836,-0.006836)" d="M932 1355Q987 1278 1044.5 1156.5Q1102 1035 1156.0 890.0Q1210 745 1253.5 593.5Q1297 442 1325.0 302.0Q1353 162 1357 53Q1358 0 1309 0H1067Q1020 0 1018 47Q1014 159 982 319H436Q408 163 404 47Q402 0 353 0H116Q98 0 86.0 10.5Q74 21 75 47Q80 158 107.5 299.5Q135 441 179.0 593.0Q223 745 277.0 890.5Q331 1036 389.0 1157.0Q447 1278 502 1355Q531 1396 563.5 1415.0Q596 1434 644 1434H788Q837 1434 870.0 1415.0Q903 1396 932 1355ZM706 1118Q640 1013 585.0 867.0Q530 721 490 567H924Q882 721 827.0 867.0Q772 1013 712 1118Z"/>
    <path transform="translate(37.59,0) scale(0.006836,-0.006836)" d="M798 53Q798 23 785.5 11.5Q773 0 743 0H530Q500 0 487.5 11.5Q475 23 475 53V504L276 735Q205 818 156.5 884.0Q108 950 84.0 1020.5Q60 1091 60 1186V1274Q60 1303 70 1318Q115 1384 196 1457Q211 1469 223 1469Q235 1469 248 1457Q292 1419 322.0 1384.5Q352 1350 374 1318Q384 1302 384 1274V1187Q384 1122 422.0 1043.0Q460 964 550 869L647 767L742 869Q823 956 865.5 1035.0Q908 1114 908 1186V1274Q908 1303 918 1318Q961 1383 1040 1457Q1055 1469 1065 1469Q1077 1469 1090 1457Q1132 1419 1161.5 1384.5Q1191 1350 1212 1318Q1222 1302 1222 1274V1186Q1222 1076 1174.0 975.5Q1126 875 1011 747L798 510Z"/>
    <path transform="translate(58.21,0) scale(0.006836,-0.006836)" d="M483 53Q483 23 470.5 11.5Q458 0 428 0H215Q185 0 172.5 11.5Q160 23 160 53V1274Q160 1303 170 1318Q215 1384 296 1457Q311 1469 322 1469Q334 1469 347 1457Q391 1419 421.0 1384.5Q451 1350 473 1318Q483 1302 483 1274Z"/>
    <path transform="translate(66.61,0) scale(0.006836,-0.006836)" d="M465 53Q465 23 453.5 11.5Q442 0 413 0H212Q184 0 172.0 11.5Q160 23 160 53V1320Q160 1379 183.0 1406.5Q206 1434 264 1434H357Q408 1434 453.5 1420.5Q499 1407 550.5 1360.0Q602 1313 670.5 1214.5Q739 1116 836 946Q929 784 985.5 687.0Q1042 590 1073.0 539.0Q1104 488 1119.5 466.0Q1135 444 1145 430V1274Q1145 1303 1154 1318Q1197 1384 1273 1457Q1288 1469 1298 1469Q1309 1469 1322 1457Q1363 1419 1391.5 1384.5Q1420 1350 1441 1318Q1450 1302 1450 1274V83Q1450 38 1433.0 19.0Q1416 0 1371 0H1275Q1232 0 1187.0 14.5Q1142 29 1085.0 80.5Q1028 132 950.0 241.0Q872 350 762 539Q669 700 613.5 795.0Q558 890 529.0 938.5Q500 987 487.0 1006.5Q474 1026 465 1036Z"/>
    <path transform="translate(81.61,0) scale(0.006836,-0.006836)" d="M548 -24Q421 -24 337.5 -1.0Q254 22 203.5 56.5Q153 91 126 125Q117 138 110.0 150.0Q103 162 100 177Q96 197 92.0 229.5Q88 262 91 305Q92 323 98 330Q105 338 121 342Q150 349 196.5 354.5Q243 360 263 360Q284 360 297.0 352.0Q310 344 328 325Q348 304 397.0 271.5Q446 239 548 239Q646 239 696.0 280.0Q746 321 746 394Q746 433 722.5 467.5Q699 502 637.0 536.5Q575 571 460 609Q270 673 186.0 768.0Q102 863 102 1032Q102 1172 170.0 1266.0Q238 1360 358.0 1408.0Q478 1456 635 1456Q756 1456 835.5 1427.5Q915 1399 959.0 1363.5Q1003 1328 1016 1306Q1024 1293 1026.5 1286.5Q1029 1280 1030 1269Q1033 1238 1032.0 1200.0Q1031 1162 1025 1114Q1022 1098 1014 1092Q1007 1087 992 1087Q895 1085 842 1097Q821 1102 814.0 1107.0Q807 1112 796 1123Q780 1142 745.5 1167.5Q711 1193 635 1193Q530 1193 486.0 1145.5Q442 1098 442 1039Q442 969 507.0 929.5Q572 890 712 840Q829 799 913.0 751.0Q997 703 1041.5 628.0Q1086 553 1086 430Q1086 277 1015.5 176.0Q945 75 823.5 25.5Q702 -24 548 -24Z"/>
    <path transform="translate(93.65,0) scale(0.006836,-0.006836)" d="M703 479Q677 479 659 492Q640 505 614.0 529.0Q588 553 556 588Q544 602 544 613Q544 624 556 638Q618 708 669 741Q681 749 703 749Q771 749 820.5 800.0Q870 851 868 965Q867 1088 807.5 1137.0Q748 1186 645 1186H597Q531 1186 507.0 1158.0Q483 1130 483 1062V53Q483 23 470.5 11.5Q458 0 428 0H215Q185 0 172.5 11.5Q160 23 160 53V1166Q160 1266 178.5 1324.5Q197 1383 250.5 1408.5Q304 1434 407 1434H645Q932 1434 1070.0 1321.5Q1208 1209 1208 977Q1208 803 1135.5 693.0Q1063 583 947.5 531.0Q832 479 703 479Z"/>
    <path transform="translate(106.32,0) scale(0.006836,-0.006836)" d="M407 0Q304 0 250.5 26.0Q197 52 178.5 111.0Q160 170 160 268V1166Q160 1266 178.5 1324.5Q197 1383 250.5 1408.5Q304 1434 407 1434H877Q901 1434 913 1426Q939 1408 967.0 1383.0Q995 1358 1026 1323Q1036 1310 1036 1302Q1036 1293 1026 1282Q995 1247 967.0 1222.0Q939 1197 913 1179Q899 1171 877 1171H597Q531 1171 507.0 1143.0Q483 1115 483 1047V853H842Q866 853 878 845Q904 827 932.0 802.0Q960 777 991 742Q1001 729 1001 721Q1001 712 991 701Q960 666 932.0 641.0Q904 616 878 598Q864 590 842 590H483V388Q483 321 507.0 292.0Q531 263 597 263H910Q934 263 946 255Q972 237 1000.0 212.0Q1028 187 1059 152Q1069 139 1069 131Q1069 122 1059 111Q1028 76 1000.0 51.0Q972 26 946 8Q932 0 910 0Z"/>
    <path transform="translate(117.97,0) scale(0.006836,-0.006836)" d="M762 245Q835 245 876.5 260.0Q918 275 941.0 297.0Q964 319 981 341Q997 361 1007.5 371.0Q1018 381 1037 385Q1053 390 1088.5 391.5Q1124 393 1159.5 393.0Q1195 393 1209 391Q1230 390 1238 383Q1246 376 1248 353Q1251 321 1251.5 277.0Q1252 233 1250 201Q1249 191 1246.5 184.0Q1244 177 1236 163Q1226 147 1197.0 116.5Q1168 86 1112.0 53.5Q1056 21 967.5 -2.0Q879 -25 750 -25Q612 -25 492.0 10.5Q372 46 281.5 130.0Q191 214 140.5 357.0Q90 500 90 714Q90 952 172.5 1118.5Q255 1285 407.0 1372.0Q559 1459 767 1459Q913 1459 1001.5 1429.0Q1090 1399 1136.0 1358.5Q1182 1318 1201 1288Q1208 1277 1211.0 1268.5Q1214 1260 1215 1242Q1218 1218 1216.5 1172.0Q1215 1126 1209 1091Q1205 1069 1196 1062Q1192 1058 1182.0 1055.0Q1172 1052 1152 1052Q1120 1052 1080.0 1054.5Q1040 1057 1020 1060Q996 1064 985.0 1071.5Q974 1079 963 1095Q945 1121 901.0 1155.0Q857 1189 756 1189Q614 1189 522.0 1079.5Q430 970 430 725Q430 481 526.5 363.0Q623 245 762 245Z"/>
    <path transform="translate(130.94,0) scale(0.006836,-0.006836)" d="M780 53Q780 23 767.5 11.5Q755 0 725 0H512Q482 0 469.5 11.5Q457 23 457 53V1171H159Q135 1171 123 1179Q97 1197 69.5 1222.0Q42 1247 10 1282Q0 1295 0 1303Q0 1312 10 1323Q42 1358 69.5 1383.0Q97 1408 123 1426Q137 1434 159 1434H1079Q1103 1434 1115 1426Q1141 1408 1169.0 1383.0Q1197 1358 1228 1323Q1238 1310 1238 1302Q1238 1293 1228 1282Q1197 1247 1169.0 1222.0Q1141 1197 1115 1179Q1101 1171 1079 1171H780Z"/>
    <path transform="translate(143.40,0) scale(0.006836,-0.006836)" d="M483 53Q483 23 470.5 11.5Q458 0 428 0H215Q185 0 172.5 11.5Q160 23 160 53V1274Q160 1303 170 1318Q215 1384 296 1457Q311 1469 322 1469Q334 1469 347 1457Q391 1419 421.0 1384.5Q451 1350 473 1318Q483 1302 483 1274Z"/>
    <path transform="translate(151.80,0) scale(0.006836,-0.006836)" d="M775 -25Q567 -25 413.0 55.0Q259 135 174.5 296.0Q90 457 90 698Q90 1081 277.0 1269.5Q464 1458 798 1458Q1111 1458 1293.0 1273.5Q1475 1089 1475 727Q1475 471 1390.0 304.5Q1305 138 1148.0 56.5Q991 -25 775 -25ZM781 245Q961 245 1048.0 374.0Q1135 503 1135 709Q1135 948 1053.0 1068.0Q971 1188 789 1188Q430 1188 430 715Q430 504 516.5 374.5Q603 245 781 245Z"/>
    <path transform="translate(166.50,0) scale(0.006836,-0.006836)" d="M465 53Q465 23 453.5 11.5Q442 0 413 0H212Q184 0 172.0 11.5Q160 23 160 53V1320Q160 1379 183.0 1406.5Q206 1434 264 1434H357Q408 1434 453.5 1420.5Q499 1407 550.5 1360.0Q602 1313 670.5 1214.5Q739 1116 836 946Q929 784 985.5 687.0Q1042 590 1073.0 539.0Q1104 488 1119.5 466.0Q1135 444 1145 430V1274Q1145 1303 1154 1318Q1197 1384 1273 1457Q1288 1469 1298 1469Q1309 1469 1322 1457Q1363 1419 1391.5 1384.5Q1420 1350 1441 1318Q1450 1302 1450 1274V83Q1450 38 1433.0 19.0Q1416 0 1371 0H1275Q1232 0 1187.0 14.5Q1142 29 1085.0 80.5Q1028 132 950.0 241.0Q872 350 762 539Q669 700 613.5 795.0Q558 890 529.0 938.5Q500 987 487.0 1006.5Q474 1026 465 1036Z"/>
  </g>
  </g>
</svg>
